<svg width="40" height="40" viewBox="0 0 40 40" fill="none" xmlns="http://www.w3.org/2000/svg">
<path d="M19.9999 3.33331C10.7949 3.33331 3.33325 10.795 3.33325 20C3.33325 29.205 10.7949 36.6666 19.9999 36.6666C29.2049 36.6666 36.6666 29.205 36.6666 20C36.6666 10.795 29.2049 3.33331 19.9999 3.33331Z" fill="url(#paint0_linear_415_7)"/>
<path d="M22.2558 24.4175H26.5691L27.2466 20.0358H22.2558V17.6408C22.2558 15.8208 22.8508 14.2066 24.5533 14.2066H27.2891V10.3833C26.8083 10.3183 25.7916 10.1766 23.8708 10.1766C19.8591 10.1766 17.5075 12.295 17.5075 17.1216V20.0366H13.3833V24.4183H17.5066V36.4616C18.3233 36.5833 19.1508 36.6666 20 36.6666C20.7675 36.6666 21.5166 36.5966 22.2558 36.4966V24.4175Z" fill="white"/>
<defs>
<linearGradient id="paint0_linear_415_7" x1="8.32742" y1="8.32748" x2="33.8458" y2="33.8458" gradientUnits="userSpaceOnUse">
<stop stop-color="#ADFF00"/>
<stop offset="1" stop-color="#0D2F4E"/>
</linearGradient>
</defs>
</svg>
