<svg width="40" height="40" viewBox="0 0 40 40" fill="none" xmlns="http://www.w3.org/2000/svg">
<path d="M34.7251 11.2333C34.3917 11.45 33.9167 11.65 33.7167 11.875C33.6417 11.95 33.6001 12.0333 33.6167 12.1167V12.975L33.3667 13.8167L33.1167 14.65L32.8417 15.5667L32.2751 17.4417L31.7251 19.2917L31.3084 20.6833C31.3084 20.9 31.3001 21.1167 31.2834 21.325C31.2251 22.125 31.0584 22.8917 30.7917 23.6083C30.6334 24.05 30.4417 24.475 30.2084 24.875C30.1251 25.0333 30.0251 25.1917 29.9251 25.3417C29.5917 25.8667 29.1917 26.35 28.7501 26.775C28.4084 27.1167 28.0334 27.4333 27.6251 27.7C27.6251 27.7 27.6251 27.7 27.6167 27.7C27.5501 27.7583 27.4751 27.8083 27.3917 27.85C27.1334 28.025 26.8584 28.175 26.5751 28.3083C26.3834 28.4083 26.1917 28.4917 25.9917 28.5667C25.9501 28.5917 25.9001 28.6083 25.8584 28.625C25.3834 28.85 24.8334 29 24.2834 29.075C24.2501 29.0833 24.2251 29.0833 24.1917 29.0917C23.8584 29.15 23.5334 29.2 23.2001 29.225C23.0501 29.2417 22.8917 29.25 22.7417 29.25L22.1501 29.2167L19.3001 29.0667C19.3001 29.0583 19.2917 29.0667 19.2917 29.0667L17.8584 28.9917C17.7501 28.9917 17.6334 28.9917 17.5251 28.9833C17.0751 28.9667 16.6417 28.9167 16.2084 28.825C16.2001 28.825 16.2001 28.825 16.2001 28.825C15.4084 28.675 14.6501 28.4083 13.9417 28.05C13.5501 27.85 13.1667 27.625 12.8084 27.3667C12.6584 27.2583 12.5167 27.1417 12.3751 27.0167C11.9751 26.6833 11.6167 26.325 11.2834 25.9583C11.2334 25.9083 11.1917 25.8583 11.1501 25.8083C11.1001 25.7583 11.0501 25.7 11.0084 25.65C10.6917 25.25 10.4251 24.8417 10.2084 24.4083C10.0084 24.025 9.85008 23.6167 9.72508 23.1667C9.67508 23.0083 9.63342 22.8583 9.60008 22.6917C9.59175 22.6833 9.58342 22.6667 9.58342 22.65C9.50008 22.3083 9.42508 21.95 9.38342 21.5917C9.33342 21.3167 9.30842 21.0417 9.30842 20.7583C9.29175 20.65 9.29175 20.5333 9.29175 20.425L10.8834 17.9667L12.4417 15.5667L13.1501 14.475L13.7917 13.4917L14.0084 13.15V12.2917C14.0251 12.1 14.0334 11.9 14.0251 11.7167C14.0167 11.1333 13.9001 10.5667 13.7084 10.025C13.5251 9.45 13.2667 8.90833 13.0001 8.40833C12.6834 7.83333 12.3501 7.31667 12.0751 6.85C11.6667 6.16667 11.3834 5.60833 11.4584 5.21667C12.0584 5.075 12.6917 5 13.3334 5H26.6667C30.1501 5 33.1501 7.16667 34.3917 10.2167C34.5251 10.5417 34.6417 10.8833 34.7251 11.2333Z" fill="#0057FF"/>
<path d="M35 13.3333V13.5583L33.85 14.225L33.1167 14.65L32.3083 15.1167L30.6917 16.0583L29.1084 16.975L27.4917 17.9083L26.85 18.2833C26.85 18.6833 26.75 19.05 26.5667 19.3833C26.3083 19.8667 25.875 20.2667 25.325 20.6083C24.7667 20.95 24.0833 21.225 23.3167 21.425C23.3167 21.425 23.3167 21.4167 23.3083 21.425C20.3417 22.1917 16.2917 21.8417 14.325 20.375C13.775 19.9667 13.3917 19.4667 13.225 18.8917C13.175 18.7 13.15 18.4917 13.15 18.2833V12.2917C13.1583 12.1667 13.075 12.0417 12.925 11.9167C12.475 11.5583 11.4167 11.2167 10.2333 10.875C9.30835 10.6167 8.31668 10.3583 7.48335 10.1083C6.82502 9.90833 6.26668 9.70833 5.93335 9.51667C6.08335 9.225 6.25835 8.93333 6.44168 8.65833C7.60835 6.95 9.39168 5.69167 11.4583 5.21667C12.0583 5.075 12.6917 5 13.3333 5H22.3333C26.8083 5.78333 30.9333 7.60833 34.3917 10.2167C34.525 10.5417 34.6417 10.8833 34.725 11.2333C34.875 11.7833 34.9667 12.35 34.9917 12.9417C35 13.0667 35 13.2 35 13.3333Z" fill="#0066FF"/>
<path d="M34.9999 13.3333V17.0083L34.8166 17.575L34.1916 19.5167L33.5416 21.5167L33.1999 22.5833L32.8833 23.575L32.5749 24.5167L32.2749 25.45L32.1166 25.9417L31.9083 26.5917C31.9083 27.225 31.8916 27.7833 31.8499 28.2583C31.8416 28.3083 31.8333 28.3583 31.8333 28.4083C31.7833 28.85 31.7166 29.225 31.6083 29.5417C31.5999 29.5917 31.5833 29.6417 31.5666 29.6833C31.3499 30.2833 31.0249 30.6667 30.5416 30.9167C30.4249 30.9833 30.2916 31.0333 30.1499 31.0833C29.7083 31.2333 29.1499 31.3083 28.4666 31.35C27.9666 31.3833 27.3916 31.3917 26.7416 31.3917H26.1666L25.1749 31.35L24.9999 31.3417L23.1916 31.2667L21.3583 31.1917L15.3166 30.9417L13.7499 30.875H13.5333C12.8833 30.8667 12.3249 30.825 11.8416 30.7583C11.1416 30.65 10.5999 30.4667 10.1916 30.1917C9.60827 29.8167 9.2666 29.2667 9.0666 28.5C9.0166 28.3167 8.97493 28.125 8.94993 27.9167C8.8666 27.4333 8.82494 26.875 8.79994 26.25C8.79994 26.125 8.79994 26 8.7916 25.8667C8.78327 25.8583 8.7916 25.8583 8.7916 25.8583V25.375C8.78327 25.1333 8.78327 24.8833 8.78327 24.625L8.82494 23.2833L8.84993 22.325L8.88327 21.2083V21.05L8.9416 19L8.99994 16.95L9.05827 15.025L9.10827 13.1333L9.12493 12.6333C9.12493 12.375 8.24993 12.225 7.27493 12.1C6.49993 12 5.64993 11.9083 5.1416 11.7917C5.18327 11.6 5.22493 11.4083 5.27493 11.225C5.42493 10.625 5.64993 10.0583 5.93327 9.51665C6.08327 9.22499 6.25827 8.93332 6.4416 8.65832C8.2416 7.86665 10.1166 7.24999 12.0749 6.84999C13.7916 6.49165 15.5833 6.29999 17.4333 6.29999C23.5666 6.29999 29.2333 8.37499 33.7166 11.875C34.1499 12.2083 34.5749 12.5667 34.9916 12.9417C34.9999 13.0667 34.9999 13.2 34.9999 13.3333Z" fill="#0075FF"/>
<path d="M35 15.3084V19.0917L34.5417 19.975L33.6667 21.6834L33.2 22.5834L32.775 23.4084L32.5917 23.7667C32.5917 24.025 32.5917 24.275 32.575 24.5167C32.575 24.875 32.5583 25.2167 32.5333 25.5334C32.5 25.9084 32.45 26.25 32.4 26.5667C32.275 27.225 32.1 27.7917 31.85 28.2584C31.8167 28.3167 31.7833 28.375 31.75 28.425C31.6583 28.575 31.55 28.7167 31.4333 28.85C31.2833 29.0334 31.1167 29.1917 30.925 29.325C30.6417 29.5417 30.3083 29.7167 29.925 29.85C29.45 30.025 28.9 30.1417 28.25 30.2084C27.825 30.25 27.3583 30.275 26.85 30.275L26.5 30.2917L24.7667 30.3917H24.7583L22.9167 30.5L21.0417 30.6084L18.4583 30.7584L15.3167 30.9417L14.8583 30.9667C14.4333 30.9667 14.0333 30.9417 13.65 30.8917C13.6083 30.8834 13.575 30.875 13.5333 30.875C12.9667 30.7834 12.45 30.6334 11.9833 30.425C11.4167 30.175 10.925 29.8417 10.5083 29.4417C10.1417 29.0834 9.825 28.675 9.56667 28.2167C9.50833 28.1084 9.45 28.0084 9.4 27.8917C9.15 27.4 8.95 26.85 8.8 26.25C8.775 26.15 8.75 26.0417 8.73333 25.9334C8.68333 25.7417 8.64167 25.5417 8.61667 25.3334C8.525 24.8 8.475 24.2334 8.45 23.6417V23.6334C8.44167 23.3917 8.43333 23.1584 8.43333 22.9084L8.025 21.9334L7.96667 21.7834L7.91667 21.6584L7.29167 20.1667L7.19167 19.925L6.59167 18.4834L5.925 16.875C5.925 16.875 5.925 16.875 5.91667 16.875L5.24167 15.25L5 14.6584V13.3334C5 12.8084 5.05 12.2917 5.14167 11.7917C5.18333 11.6 5.225 11.4084 5.275 11.225C5.98333 10.8167 6.725 10.4417 7.48333 10.1084C9.21667 9.33336 11.075 8.75836 13 8.40836C14.4333 8.15003 15.925 8.00836 17.4333 8.00836C23.525 8.00836 29.05 10.2167 33.3667 13.8167C33.5333 13.95 33.6917 14.0834 33.85 14.225C34.2417 14.5667 34.625 14.925 35 15.3084Z" fill="#00A3FF"/>
<path d="M35 17.7916V22.075L34.525 23.0666L33.625 24.9416L33.6167 24.9666C33.6167 25.325 33.6 25.65 33.575 25.9416C33.4917 26.9 33.2583 27.5083 32.875 27.8833C32.6 28.1666 32.2583 28.325 31.8333 28.4083C31.8083 28.4166 31.775 28.4166 31.75 28.425C31.6167 28.45 31.475 28.4666 31.325 28.4666C30.8083 28.5166 30.2 28.4833 29.5 28.4333C29.425 28.4333 29.3417 28.425 29.2583 28.4166C28.75 28.3833 28.2083 28.35 27.6083 28.325C27.2833 28.3166 26.9417 28.3083 26.5917 28.3083H26.575L25.7333 28.375H25.725L23.8333 28.5083L21.675 28.675L21.3583 28.7L18.8333 28.8833L17.525 28.9833L16.2333 29.075C16.0083 29.075 15.7917 29.075 15.575 29.0666C15.575 29.0666 15.5667 29.0583 15.5667 29.0666C14.625 29.05 13.7833 28.9916 13.0333 28.85C12.3417 28.7333 11.7333 28.55 11.2167 28.275C10.6833 28.0166 10.2417 27.65 9.88333 27.1833C9.54167 26.725 9.29167 26.15 9.13333 25.4583C9.13333 25.45 9.13333 25.45 9.13333 25.45C9.01667 24.8916 8.95 24.2416 8.95 23.5083L8.825 23.2833L8.08333 21.9583L7.975 21.775L7.91667 21.6583L7.14167 20.2833L6.75833 19.5916L6.275 18.7333L5.44167 17.2416L5 16.4583V13.3916C5.73333 12.9083 6.49167 12.4833 7.275 12.1C8.225 11.6166 9.20833 11.2083 10.2333 10.875C11.35 10.5083 12.5167 10.2166 13.7083 10.025C14.9167 9.82498 16.1583 9.72498 17.4333 9.72498C23.1 9.72498 28.3 11.75 32.3083 15.1166C32.4917 15.2583 32.6667 15.4166 32.8417 15.5666C33.5417 16.1916 34.2083 16.8666 34.8167 17.575C34.8833 17.65 34.95 17.7166 35 17.7916Z" fill="#00D1FF"/>
<path d="M35 20.5917V26.6167C34.8 26.5 34.525 26.3583 34.1833 26.2083C34 26.1167 33.7917 26.025 33.575 25.9417C33.2583 25.8 32.9167 25.6667 32.5333 25.5333C32.45 25.5 32.3667 25.475 32.275 25.45C32.125 25.3917 31.9667 25.3417 31.8083 25.2917C31.3167 25.1417 30.775 25 30.2083 24.875C29.9917 24.8334 29.7667 24.7917 29.5417 24.7583C28.8167 24.6333 28.0417 24.5583 27.2333 24.55C27.1667 24.5417 27.0917 24.5417 27.025 24.5417L24.8833 24.5583L21.9667 24.575H21.9583L15.7167 24.625C13.7333 24.625 12.5167 25.1 11.7833 25.2917C11.7833 25.2917 11.775 25.2917 11.775 25.3C11 25.5 10.7583 25.375 10.6917 24.0167C10.675 23.6417 10.6667 23.1583 10.6667 22.5667L10.2 22.2083L9.38333 21.5917L8.88333 21.2084L8.78333 21.1333L7.4 20.0833L7.19167 19.925L6.75833 19.5917L5.95833 18.9917L5 18.2583V15.425C5.08333 15.3583 5.15833 15.3 5.24167 15.25C6.45 14.4167 7.74167 13.7083 9.10833 13.1333C10.325 12.6167 11.6083 12.2083 12.925 11.9167C13.2833 11.8417 13.65 11.7667 14.025 11.7167C15.1333 11.525 16.275 11.4333 17.4333 11.4333C22.4417 11.4333 27.0417 13.175 30.6917 16.0583C31.2417 16.4917 31.775 16.95 32.275 17.4417C32.9583 18.0917 33.6 18.7833 34.1917 19.5167C34.3083 19.6667 34.425 19.8167 34.5417 19.975C34.7 20.175 34.85 20.3833 35 20.5917Z" fill="#00F0FF"/>
<path d="M35 23.9334V26.6667C35 27.2084 34.95 27.7417 34.85 28.2584C34.7 29.025 34.4417 29.7584 34.0917 30.4417C33.9083 30.4834 33.7 30.4834 33.4667 30.45C32.9417 30.3584 32.325 30.0834 31.6583 29.725C31.625 29.7167 31.5917 29.7 31.5667 29.6834C31.3583 29.575 31.1417 29.4584 30.925 29.325C30.4833 29.0834 30.0167 28.8167 29.55 28.5667C29.45 28.5167 29.35 28.4667 29.2583 28.4167C28.725 28.1417 28.175 27.8917 27.625 27.7C27.625 27.7 27.625 27.7 27.6167 27.7C27.5 27.6584 27.375 27.6167 27.25 27.5834C26.775 27.45 26.2917 27.3667 25.825 27.3667L24.9083 27.1L20.85 25.925C20.85 25.925 20.85 25.925 20.8417 25.925L18.35 25.2H18.3417L17.2583 24.8834C14.125 24.8834 12.2 26.2167 11.2667 25.7084C10.9 25.5167 10.6833 25.0334 10.6083 24.0834C10.5833 23.8167 10.575 23.5167 10.575 23.1667L9.6 22.6917L9.55833 22.675H9.55L8.85 22.325L8.08333 21.9584L8.025 21.9334L7.88333 21.8584L6.25 21.0667L5 20.4584V17.6C5.14167 17.475 5.29167 17.3584 5.44167 17.2417C5.6 17.1167 5.75833 17 5.91667 16.875C5.925 16.875 5.925 16.875 5.925 16.875C6.90833 16.1667 7.95 15.5417 9.05833 15.025C10.35 14.4084 11.725 13.9334 13.15 13.625C13.3583 13.575 13.575 13.525 13.7917 13.4917C14.975 13.2667 16.1917 13.15 17.4333 13.15C21.825 13.15 25.8583 14.575 29.1083 16.975C30.05 17.675 30.925 18.45 31.725 19.2917C32.3833 19.9834 32.9917 20.7334 33.5417 21.5167C33.5833 21.575 33.625 21.6334 33.6667 21.6834C33.975 22.1334 34.2583 22.5917 34.525 23.0667C34.7 23.35 34.85 23.6417 35 23.9334Z" fill="#00FFD1"/>
<path d="M34.85 28.2583C34.7 29.025 34.4417 29.7583 34.0917 30.4417C33.9333 30.75 33.7583 31.0417 33.5667 31.325C33.45 31.5 33.325 31.6667 33.2 31.825C32.9 31.7083 32.4583 31.5417 31.9167 31.3583C31.9167 31.3583 31.9167 31.3583 31.9167 31.35C31.5083 31.2083 31.0417 31.0583 30.5417 30.9167C30.4 30.875 30.2583 30.8333 30.1083 30.7917C29.5167 30.6333 28.9 30.4917 28.3 30.4083C27.8 30.325 27.3083 30.275 26.85 30.275L26.4667 30.1667H26.4583L24.4417 29.5833L23.2 29.225L21.8167 28.825H21.8083L21.3583 28.7L15.9167 27.1333L14.35 26.6833L13.1833 26.4083L11.2833 25.9583L11.05 25.9C11.05 25.9 11.05 25.9 11.0417 25.9L9.13333 25.4583C9.13333 25.45 9.13333 25.45 9.13333 25.45L8.79167 25.375L8.61667 25.3333L7.225 25.0083L7.06667 24.9667L5.88333 23.9917L5 23.25V19.85C5.30833 19.55 5.625 19.2667 5.95833 18.9917C6.05833 18.9 6.16667 18.8167 6.275 18.7333C6.375 18.65 6.48333 18.5667 6.59167 18.4833C7.35 17.9083 8.15 17.3917 9 16.95C10.0833 16.3667 11.2333 15.9 12.4417 15.5667C12.675 15.4917 12.9083 15.425 13.15 15.375C14.5167 15.0333 15.95 14.8583 17.4333 14.8583C21.1583 14.8583 24.625 15.9833 27.4917 17.9083C28.9167 18.8667 30.2 20.0167 31.2833 21.325C31.8333 21.9833 32.3333 22.675 32.775 23.4083C32.8167 23.4667 32.85 23.5167 32.8833 23.575C33.15 24.0167 33.4 24.475 33.625 24.9417C33.8333 25.3583 34.0167 25.775 34.1833 26.2083C34.45 26.875 34.6667 27.5583 34.85 28.2583Z" fill="#00FF75"/>
<path d="M33.5667 31.325C33.45 31.5 33.325 31.6667 33.2 31.825C32.8333 32.2833 32.4333 32.7 31.9833 33.0667C31.5917 33.3917 31.175 33.6833 30.7333 33.9333C30.5667 33.8917 30.4 33.8417 30.225 33.775C29.675 33.5833 29.1 33.2667 28.5667 32.9333C27.7667 32.425 27.075 31.875 26.7667 31.625C26.65 31.525 26.5917 31.475 26.5917 31.475L25.175 31.35L25 31.3333L23.1667 31.175L21.2667 31.0083L18.4583 30.7583L14.0083 30.3667L13.9917 30.3583L12.425 29.6L10.8417 28.8333L9.56667 28.2167L9.29167 28.0833L8.95 27.9167L7.76667 27.3417L6.19167 26.5833L5.7 26.3417L5 26.125V22.4C5.39167 21.9333 5.80833 21.4917 6.25 21.0667C6.53333 20.8 6.83333 20.5333 7.14167 20.2833C7.19167 20.2417 7.24167 20.2 7.29167 20.1667C7.325 20.125 7.36667 20.1 7.4 20.0833C7.89167 19.6833 8.40833 19.325 8.94167 19C9.55833 18.6083 10.2083 18.2583 10.8833 17.9667C11.6083 17.6417 12.3667 17.3667 13.15 17.1583C14.5083 16.775 15.95 16.575 17.4333 16.575C20.8333 16.575 23.975 17.6083 26.5667 19.3833C28.225 20.5167 29.6583 21.95 30.7917 23.6083C31.1667 24.1417 31.5 24.7083 31.8083 25.2917C31.9167 25.5083 32.025 25.725 32.1167 25.9417C32.2167 26.15 32.3083 26.3583 32.4 26.5667C32.575 27 32.7333 27.4333 32.875 27.8833C33.1417 28.7167 33.3417 29.5667 33.4667 30.45C33.5083 30.7417 33.5417 31.0333 33.5667 31.325Z" fill="#00FF38"/>
<path d="M31.9917 32.85C31.9917 32.9167 31.9917 32.9917 31.9833 33.0667C31.5917 33.3917 31.175 33.6833 30.7333 33.9333C30.55 34.0333 30.3667 34.1333 30.175 34.2167C29.9833 34.3083 29.7917 34.3917 29.5917 34.4667C29.3083 34.3167 28.925 34.1333 28.5167 33.9583C27.9417 33.7 27.3167 33.4667 26.8333 33.3917C26.7167 33.3667 26.6083 33.3583 26.5083 33.3583L25.1417 33.1833H25.125L23.425 32.9583L21.7083 32.7333L20.9083 32.6333L14.6083 31.8167C14.2 31.8167 13.7667 31.7917 13.3167 31.7333C12.7667 31.6833 12.1917 31.6 11.6167 31.4833C11.05 31.3833 10.475 31.25 9.925 31.1083C9.35 30.975 8.78333 30.8167 8.25833 30.6667C7.65 30.4833 7.08333 30.3083 6.60833 30.15C6.21667 30.025 5.88333 29.9083 5.625 29.8167C5.475 29.4583 5.35 29.0833 5.25833 28.7C5.08333 28.05 5 27.3667 5 26.6667V25.275C5.26667 24.8333 5.55833 24.4 5.88333 23.9917C6.475 23.2083 7.15 22.4917 7.88333 21.8583C7.90833 21.825 7.94167 21.8 7.96667 21.7833L7.975 21.775C8.23333 21.5417 8.5 21.3333 8.78333 21.1333C8.81667 21.1 8.85 21.075 8.88333 21.05C9.01667 20.95 9.15833 20.85 9.30833 20.7583C10.5 19.95 11.8167 19.3167 13.225 18.8917C14.5583 18.4917 15.9667 18.2833 17.4333 18.2833C20.3417 18.2833 23.0583 19.1417 25.325 20.6083C27 21.6833 28.4417 23.1 29.5417 24.7583C29.675 24.95 29.8 25.1417 29.925 25.3417C30.5 26.3167 30.975 27.3667 31.325 28.4667C31.3667 28.5917 31.4 28.7167 31.4333 28.85C31.5 29.075 31.5583 29.3083 31.6083 29.5417C31.625 29.6 31.6417 29.6583 31.6583 29.725C31.775 30.25 31.8583 30.8 31.9167 31.35C31.9167 31.3583 31.9167 31.3583 31.9167 31.3583C31.9667 31.85 31.9917 32.35 31.9917 32.85Z" fill="#70FF00"/>
<path d="M30.275 32.85C30.275 33.1417 30.2583 33.4583 30.225 33.775C30.2083 33.925 30.1916 34.075 30.175 34.2167C29.9833 34.3083 29.7916 34.3917 29.5916 34.4667C29.2166 34.6083 28.8333 34.725 28.4416 34.8083C28.175 34.8667 27.9 34.9167 27.625 34.9417H27.6166C27.3583 34.7833 27.0583 34.5917 26.75 34.375C26.1916 33.9833 25.6083 33.5417 25.1416 33.1833C25.1333 33.175 25.1333 33.175 25.125 33.1667C24.6333 32.7917 24.2833 32.5083 24.2833 32.5083L23.4 32.5417L21.7 32.6L20.9083 32.6333L17.725 32.75L15.0333 32.85C14.8583 32.8583 14.65 32.8583 14.3916 32.85H14.3833C14.0333 32.8417 13.6166 32.8167 13.1583 32.775C12.625 32.7333 12.0416 32.6833 11.45 32.625C10.875 32.5583 10.2916 32.4917 9.7333 32.425C9.11663 32.3583 8.5333 32.2833 8.0333 32.2167C7.64163 32.1667 7.29997 32.125 7.02497 32.0917C6.79163 31.825 6.5833 31.55 6.3833 31.25C6.0833 30.8 5.82497 30.325 5.62497 29.8167C5.47497 29.4583 5.34997 29.0833 5.2583 28.7C5.49997 27.9583 5.81663 27.2583 6.19163 26.5833C6.49163 26.0333 6.84163 25.5083 7.22497 25.0083C7.59997 24.5167 8.0083 24.0583 8.44997 23.6417V23.6333C8.57497 23.5083 8.69997 23.3917 8.82497 23.2833C9.0583 23.0667 9.29997 22.8667 9.54997 22.675H9.5583C9.56663 22.6583 9.57497 22.6583 9.5833 22.65C9.7833 22.4917 9.99163 22.35 10.2 22.2083C11.4333 21.3667 12.825 20.7417 14.325 20.375C15.3166 20.1333 16.3583 20 17.4333 20C19.55 20 21.55 20.5083 23.3083 21.425H23.3166C24.825 22.2 26.1583 23.2667 27.2333 24.55C27.825 25.2333 28.3333 25.9833 28.75 26.775C29.0416 27.3083 29.2916 27.8667 29.5 28.4333C29.5166 28.4833 29.5333 28.525 29.55 28.5667C29.6916 28.9833 29.8166 29.4167 29.925 29.85C30 30.1583 30.0583 30.475 30.1083 30.7917C30.125 30.8917 30.1416 30.9833 30.15 31.0833C30.2333 31.6583 30.275 32.25 30.275 32.85Z" fill="#8FFF00"/>
<path d="M28.5666 32.85V32.9333C28.5666 33.2167 28.5416 33.575 28.5166 33.9583C28.4916 34.2417 28.4666 34.5333 28.4416 34.8083C28.175 34.8667 27.9 34.9167 27.625 34.9417H27.6166C27.3 34.9833 26.9916 35 26.6666 35H25.2083L24.8916 34.9083L23.25 34.4083L21.5833 33.9083L17.725 32.75L16.0583 32.25C16.0583 32.25 15.3666 32.525 14.3916 32.85H14.3833C14.0083 32.975 13.6 33.1083 13.1666 33.2417C12.625 33.4 12.05 33.5583 11.4833 33.6833C10.9 33.8167 10.325 33.9167 9.8083 33.9583C9.64997 33.975 9.49163 33.9833 9.34997 33.9833C8.8833 33.725 8.4333 33.4167 8.02497 33.075C7.66663 32.775 7.3333 32.45 7.02497 32.0917C6.79163 31.825 6.5833 31.55 6.3833 31.25C6.44163 30.875 6.5083 30.5083 6.6083 30.15C6.8583 29.1583 7.24997 28.2083 7.76663 27.3417C8.04997 26.85 8.36663 26.375 8.7333 25.9333C8.74163 25.9083 8.76663 25.8833 8.79163 25.8667C8.7833 25.8583 8.79163 25.8583 8.79163 25.8583C8.89997 25.7167 9.01663 25.5833 9.1333 25.4583C9.1333 25.45 9.1333 25.45 9.1333 25.45C9.47497 25.0833 9.82497 24.7333 10.2083 24.4083C10.3416 24.3 10.4666 24.1917 10.6083 24.0833C10.6333 24.0583 10.6583 24.0417 10.6916 24.0167C12.5666 22.5833 14.9083 21.7167 17.4333 21.7167C20.3 21.7167 22.9083 22.7917 24.8833 24.5583C25.8333 25.4167 26.6416 26.4417 27.25 27.5833C27.3 27.6667 27.35 27.7583 27.3916 27.85C27.4666 28 27.5416 28.1583 27.6083 28.325C27.8833 28.925 28.1 29.5583 28.25 30.2083C28.2666 30.275 28.2833 30.3417 28.3 30.4083C28.3666 30.7167 28.425 31.0333 28.4666 31.35C28.5333 31.8417 28.5666 32.3417 28.5666 32.85Z" fill="#8FFF00"/>
<path d="M26.85 32.85C26.85 33.0167 26.8416 33.2 26.8333 33.3917C26.8166 33.7 26.7916 34.0333 26.75 34.375C26.7333 34.5833 26.7 34.7917 26.6666 35H22.1L21.2166 34.8583L17.7666 34.3083L17.275 34.2333L16.15 34.05C15.6583 34.05 14.5916 34.2667 13.4666 34.475C12.875 34.5833 12.275 34.7 11.7333 34.775C11.6666 34.7833 11.6 34.7917 11.5416 34.8H11.5333C10.95 34.675 10.3833 34.4833 9.84997 34.2333C9.6833 34.1583 9.51663 34.075 9.34997 33.9833C8.8833 33.725 8.4333 33.4167 8.02497 33.075C8.01663 32.975 8.0083 32.8917 8.0083 32.85C8.0083 32.6333 8.01663 32.425 8.0333 32.2167C8.06663 31.6833 8.14163 31.1667 8.2583 30.6667C8.44163 29.9083 8.7083 29.175 9.06663 28.5C9.1333 28.3583 9.2083 28.2167 9.29163 28.0833C9.32497 28.0167 9.36663 27.9583 9.39997 27.8917C9.54997 27.65 9.71663 27.4167 9.8833 27.1833C10.2333 26.725 10.625 26.2917 11.0416 25.9C11.05 25.9 11.05 25.9 11.05 25.9C11.0833 25.8667 11.1166 25.8333 11.15 25.8083C11.1916 25.775 11.225 25.7333 11.2666 25.7083C11.4333 25.5583 11.6 25.425 11.775 25.3C11.775 25.2917 11.7833 25.2917 11.7833 25.2917C13.3583 24.1167 15.3083 23.425 17.4333 23.425C19.0833 23.425 20.6166 23.8417 21.9583 24.575H21.9666C23.1166 25.2083 24.1166 26.0667 24.9083 27.1C25.2166 27.5 25.4916 27.925 25.725 28.375H25.7333C25.775 28.4583 25.8166 28.5417 25.8583 28.625C26.1083 29.1167 26.3083 29.6333 26.4583 30.1667H26.4666C26.475 30.2083 26.4916 30.25 26.5 30.2917C26.6 30.65 26.6833 31.0167 26.7416 31.3917C26.75 31.4667 26.7583 31.55 26.7666 31.625C26.825 32.025 26.85 32.4333 26.85 32.85Z" fill="#ADFF00"/>
<path d="M25.1418 32.7583C25.1418 32.8917 25.1418 33.0333 25.1251 33.1667V33.175C25.1251 33.1833 25.1251 33.1833 25.1251 33.1833C25.1084 33.7833 25.0251 34.375 24.8918 34.9083C24.8918 34.9417 24.8834 34.9667 24.8668 35H20.9751L17.7668 34.3083L17.3418 34.2167L17.2751 34.2333L13.7168 34.9667L13.5584 35H13.3334C12.8001 35 12.2751 34.95 11.7668 34.85C11.6918 34.8333 11.6168 34.8167 11.5418 34.8H11.5334C10.9501 34.675 10.3834 34.4833 9.8501 34.2333C9.83343 34.1417 9.81676 34.05 9.80843 33.9583C9.7501 33.6 9.7251 33.225 9.7251 32.85C9.7251 32.7083 9.7251 32.5667 9.73343 32.425C9.75843 31.975 9.8251 31.5333 9.9251 31.1083C9.99176 30.7917 10.0834 30.4833 10.1918 30.1917C10.2834 29.9333 10.3918 29.6833 10.5084 29.4417C10.6084 29.2333 10.7251 29.0333 10.8418 28.8333C10.9584 28.6417 11.0834 28.4583 11.2168 28.275C11.5501 27.8167 11.9418 27.3917 12.3751 27.0167C12.6251 26.8 12.9001 26.5917 13.1834 26.4083C14.4001 25.6083 15.8584 25.1417 17.4334 25.1417C17.7418 25.1417 18.0418 25.1583 18.3334 25.2H18.3501C19.2418 25.3 20.0751 25.55 20.8418 25.925C20.8501 25.925 20.8501 25.925 20.8501 25.925C22.0584 26.5167 23.0834 27.4083 23.8334 28.5083C23.9584 28.6917 24.0834 28.8917 24.1918 29.0917C24.2834 29.25 24.3668 29.4167 24.4418 29.5833C24.5584 29.8417 24.6668 30.1167 24.7584 30.3917H24.7668C24.8584 30.7 24.9418 31.0083 25.0001 31.3333V31.3417C25.0918 31.8 25.1418 32.275 25.1418 32.7583Z" fill="#ADFF00"/>
<path d="M23.425 32.9334V32.9583C23.425 33.45 23.3667 33.9334 23.25 34.4084C23.2083 34.6084 23.15 34.8083 23.075 35H19.3417L17.4333 34.475L15.525 35H13.3333C12.8 35 12.275 34.95 11.7667 34.85C11.75 34.825 11.7417 34.8 11.7333 34.775C11.6167 34.4167 11.525 34.0583 11.4833 33.6833C11.45 33.4417 11.4333 33.1917 11.4333 32.9334C11.4333 32.8334 11.4333 32.725 11.45 32.625C11.4583 32.2334 11.5167 31.85 11.6167 31.4833C11.6667 31.2333 11.7417 30.9917 11.8417 30.7583C11.875 30.6417 11.925 30.5333 11.9833 30.425C12.1083 30.1417 12.2583 29.8667 12.425 29.6C12.6083 29.3334 12.8083 29.0833 13.0333 28.85C13.3 28.55 13.6 28.275 13.9417 28.05C14.525 27.625 15.1917 27.3084 15.9167 27.1334C16.4 27 16.9083 26.9333 17.4333 26.9333C19.1 26.9333 20.5917 27.6 21.675 28.675C21.7167 28.7167 21.7667 28.7667 21.8083 28.825H21.8167C21.9333 28.95 22.0417 29.075 22.15 29.2167C22.4583 29.6084 22.7167 30.0333 22.9167 30.5C23.0167 30.7167 23.1 30.9417 23.1667 31.175C23.175 31.2083 23.1833 31.2334 23.1917 31.2667C23.3083 31.675 23.3833 32.1 23.4 32.5417C23.4167 32.6667 23.425 32.8 23.425 32.9334Z" fill="#ADFF00"/>
<path d="M21.7166 32.9334C21.7166 33.275 21.6749 33.6 21.5832 33.9084C21.4999 34.2417 21.3749 34.5584 21.2166 34.8584C21.1916 34.9084 21.1332 35 21.1332 35H13.7332C13.7249 34.9917 13.7166 34.975 13.7166 34.9667C13.6166 34.8084 13.5332 34.65 13.4666 34.475C13.2999 34.0917 13.1999 33.675 13.1666 33.2417C13.1499 33.1417 13.1499 33.0334 13.1499 32.9334C13.1499 32.8834 13.1499 32.825 13.1582 32.775C13.1666 32.4084 13.2166 32.0584 13.3166 31.7334C13.3999 31.4334 13.5082 31.1584 13.6499 30.8917C13.6499 30.8917 13.6582 30.8834 13.6582 30.875C13.7582 30.7 13.8666 30.525 13.9916 30.3584C14.3999 29.8084 14.9416 29.3584 15.5666 29.0667C15.5749 29.0667 15.5749 29.0667 15.5749 29.0667C15.7749 28.9667 15.9832 28.8834 16.1999 28.825C16.1999 28.825 16.1999 28.825 16.2082 28.825C16.5916 28.7084 17.0082 28.65 17.4332 28.65C17.9249 28.65 18.3999 28.725 18.8332 28.8834C18.9916 28.925 19.1416 28.9917 19.2916 29.0667C19.2916 29.0667 19.2916 29.0667 19.2999 29.0667C20.0166 29.4084 20.6249 29.9417 21.0416 30.6084C21.1249 30.7334 21.1999 30.8667 21.2666 31.0084C21.2999 31.0667 21.3332 31.1334 21.3582 31.1917C21.5499 31.625 21.6666 32.1 21.6999 32.6C21.7082 32.6417 21.7082 32.6834 21.7082 32.7334C21.7166 32.8 21.7166 32.8667 21.7166 32.9334Z" fill="#ADFF00"/>
<path d="M25.0001 9.16669H15.0001C11.7501 9.16669 9.16675 11.75 9.16675 15V25C9.16675 28.25 11.7501 30.8334 15.0001 30.8334H25.0001C28.2501 30.8334 30.8334 28.25 30.8334 25V15C30.8334 11.75 28.2501 9.16669 25.0001 9.16669Z" stroke="white" stroke-width="2" stroke-miterlimit="10" stroke-linecap="round" stroke-linejoin="round"/>
<path d="M25.8333 14.1667C26.2936 14.1667 26.6667 13.7936 26.6667 13.3333C26.6667 12.8731 26.2936 12.5 25.8333 12.5C25.3731 12.5 25 12.8731 25 13.3333C25 13.7936 25.3731 14.1667 25.8333 14.1667Z" fill="white"/>
<path d="M20 25C22.7614 25 25 22.7614 25 20C25 17.2386 22.7614 15 20 15C17.2386 15 15 17.2386 15 20C15 22.7614 17.2386 25 20 25Z" stroke="white" stroke-width="2" stroke-miterlimit="10" stroke-linecap="round" stroke-linejoin="round"/>
</svg>
