<svg width="28" height="30" viewBox="0 0 28 30" fill="none" xmlns="http://www.w3.org/2000/svg">
<path d="M4.87508 30C4.20841 30 3.62508 29.75 3.12508 29.25C2.62508 28.75 2.37508 28.1667 2.37508 27.5V3.75H0.666748V1.25H8.50008V0H19.5001V1.25H27.3334V3.75H25.6251V27.5C25.6251 28.1667 25.3751 28.75 24.8751 29.25C24.3751 29.75 23.7917 30 23.1251 30H4.87508ZM23.1251 3.75H4.87508V27.5H23.1251V3.75ZM9.29175 23.9167H11.7917V7.29167H9.29175V23.9167ZM16.2084 23.9167H18.7084V7.29167H16.2084V23.9167ZM4.87508 3.75V27.5V3.75Z" fill="#ADFF00"/>
</svg>
